<?xml version="1.0" encoding="UTF-8"?>
<svg version="1.1" xmlns="http://www.w3.org/2000/svg" width="792" height="369">
<path d="M0 0 C7.09568032 5.75436124 14.95844131 12.61794494 17.22705078 21.69238281 C17.55705078 17.40238281 17.88705078 13.11238281 18.22705078 8.69238281 C28.78705078 8.69238281 39.34705078 8.69238281 50.22705078 8.69238281 C50.22705078 52.91238281 50.22705078 97.13238281 50.22705078 142.69238281 C39.66705078 142.69238281 29.10705078 142.69238281 18.22705078 142.69238281 C18.22705078 138.73238281 18.22705078 134.77238281 18.22705078 130.69238281 C17.48841797 131.2840625 16.74978516 131.87574219 15.98876953 132.48535156 C0.93239123 144.21287367 -13.75101495 148.47443386 -32.77294922 146.69238281 C-49.59464429 143.87035729 -63.93026058 133.73808271 -74.08544922 120.25488281 C-86.87425136 101.62491752 -89.69145264 80.09320213 -86.11279297 57.92285156 C-82.61232976 40.63489087 -72.22218251 25.78439217 -57.92919922 15.69628906 C-43.83517215 6.74797732 -28.35090022 2.82199554 -11.77294922 5.69238281 C-4.15999262 7.56563153 2.56657937 10.58845599 9.22705078 14.69238281 C-6.38115563 -0.41085221 -25.23453755 -5.88699561 -46.51513672 -5.58886719 C-53.96413373 -5.31809303 -60.72176194 -3.6273889 -67.77294922 -1.30761719 C-69.32175781 -0.79908203 -69.32175781 -0.79908203 -70.90185547 -0.28027344 C-98.80210405 10.15910053 -115.08611956 33.63169805 -128.77294922 58.69238281 C-129.31435547 59.67899902 -129.85576172 60.66561523 -130.41357422 61.68212891 C-137.06288214 73.82527213 -143.50192182 86.06681473 -149.81414795 98.38726807 C-156.80144431 112.01986618 -164.01873195 125.47570882 -171.77294922 138.69238281 C-172.33723633 139.65611816 -172.90152344 140.61985352 -173.48291016 141.61279297 C-184.17824022 159.77934496 -195.77805358 176.90614054 -209.77294922 192.69238281 C-210.44922363 193.4692041 -210.44922363 193.4692041 -211.13916016 194.26171875 C-217.44522017 201.49869465 -224.09216702 207.88962496 -231.77294922 213.69238281 C-232.56056641 214.29566406 -233.34818359 214.89894531 -234.15966797 215.52050781 C-255.95036747 231.51236001 -281.73454462 238.960588 -308.72509766 235.29101562 C-314.46061864 234.31299881 -320.12024194 233.06570866 -325.77294922 231.69238281 C-325.77294922 230.70238281 -325.77294922 229.71238281 -325.77294922 228.69238281 C-324.50322266 228.655 -323.23349609 228.61761719 -321.92529297 228.57910156 C-291.23621266 227.49162244 -267.62993652 218.36798433 -245.77294922 196.69238281 C-244.66886719 195.66177734 -244.66886719 195.66177734 -243.54248047 194.61035156 C-222.43663822 174.59982248 -208.37862168 146.00645928 -194.77294922 120.69238281 C-194.1923877 119.61230957 -193.61182617 118.53223633 -193.01367188 117.41943359 C-191.16092437 113.96964466 -189.31025241 110.51875135 -187.46044922 107.06738281 C-186.99022339 106.19043762 -186.99022339 106.19043762 -186.51049805 105.29577637 C-183.2880444 99.28489871 -180.07304677 93.27047723 -176.89555359 87.23568726 C-162.83031173 60.52604859 -148.00692608 34.40690229 -126.77294922 12.69238281 C-126.01626953 11.87382813 -125.25958984 11.05527344 -124.47998047 10.21191406 C-93.33818109 -22.74507216 -36.6818612 -27.05426172 0 0 Z M-118.671875 20.21044922 C-147.85962942 49.48474998 -164.47852154 87.88464475 -182.62841797 124.43920898 C-183.2828035 125.754589 -183.2828035 125.754589 -183.95040894 127.09654236 C-184.76459141 128.73342247 -185.57716968 130.37110205 -186.38772583 132.00978088 C-188.7381034 136.73098156 -191.23995837 141.31285607 -193.9369812 145.84637451 C-194.21285065 146.45555725 -194.48872009 147.06473999 -194.77294922 147.69238281 C-194.44294922 148.35238281 -194.11294922 149.01238281 -193.77294922 149.69238281 C-187.19733695 138.24288708 -181.09692467 126.56926174 -175.08544922 114.81738281 C-139.85728195 46.04338236 -139.85728195 46.04338236 -115.03857422 20.13378906 C-112.76769916 17.91571949 -112.76769916 17.91571949 -111.77294922 15.69238281 C-114.99879245 15.69238281 -116.44360254 18.03645292 -118.671875 20.21044922 Z M-47.77294922 49.69238281 C-54.8110715 62.4659415 -55.88783983 77.17271965 -53.01904297 91.44238281 C-52.10852222 94.01326493 -51.1059894 96.31689598 -49.77294922 98.69238281 C-49.17482422 99.76488281 -48.57669922 100.83738281 -47.96044922 101.94238281 C-41.50051788 110.06343935 -34.26607115 115.70990367 -23.77294922 117.69238281 C-12.1057874 118.66864738 -2.42371643 116.33280321 7.15673828 109.51660156 C15.39257923 102.25973794 19.30063101 92.43885216 20.22705078 81.69238281 C20.88777347 68.51922414 18.57573916 58.09746456 11.47705078 46.94238281 C3.68523982 39.15057185 -6.25681706 34.58395149 -17.27294922 34.19238281 C-29.38028419 34.59548077 -40.27494971 40.14947435 -47.77294922 49.69238281 Z M-195.77294922 149.69238281 C-194.77294922 151.69238281 -194.77294922 151.69238281 -194.77294922 151.69238281 Z M-196.77294922 151.69238281 C-196.77294922 154.69238281 -196.77294922 154.69238281 -196.77294922 154.69238281 Z M-198.77294922 154.69238281 C-197.77294922 156.69238281 -197.77294922 156.69238281 -197.77294922 156.69238281 Z M-199.77294922 156.69238281 C-198.77294922 158.69238281 -198.77294922 158.69238281 -198.77294922 158.69238281 Z M-201.77294922 159.69238281 C-200.77294922 161.69238281 -200.77294922 161.69238281 -200.77294922 161.69238281 Z M-202.77294922 161.69238281 C-201.77294922 163.69238281 -201.77294922 163.69238281 -201.77294922 163.69238281 Z M-204.77294922 164.69238281 C-203.77294922 166.69238281 -203.77294922 166.69238281 -203.77294922 166.69238281 Z M-206.77294922 167.69238281 C-205.77294922 169.69238281 -205.77294922 169.69238281 -205.77294922 169.69238281 Z M-208.77294922 170.69238281 C-207.77294922 172.69238281 -207.77294922 172.69238281 -207.77294922 172.69238281 Z M-210.77294922 173.69238281 C-209.77294922 175.69238281 -209.77294922 175.69238281 -209.77294922 175.69238281 Z M-324.77294922 229.69238281 C-324.77294922 230.02238281 -324.77294922 230.35238281 -324.77294922 230.69238281 C-322.46294922 230.69238281 -320.15294922 230.69238281 -317.77294922 230.69238281 C-317.77294922 230.36238281 -317.77294922 230.03238281 -317.77294922 229.69238281 C-320.08294922 229.69238281 -322.39294922 229.69238281 -324.77294922 229.69238281 Z M-294.77294922 229.69238281 C-290.77294922 230.69238281 -290.77294922 230.69238281 -290.77294922 230.69238281 Z M-312.77294922 230.69238281 C-312.77294922 231.02238281 -312.77294922 231.35238281 -312.77294922 231.69238281 C-309.14294922 231.69238281 -305.51294922 231.69238281 -301.77294922 231.69238281 C-301.77294922 231.36238281 -301.77294922 231.03238281 -301.77294922 230.69238281 C-305.40294922 230.69238281 -309.03294922 230.69238281 -312.77294922 230.69238281 Z " fill="#8F8E91" transform="translate(711.77294921875,103.3076171875)"/>
<path d="M0 0 C5.0245152 4.84665625 10.80914885 11.51075082 13.20703125 18.12890625 C13.07958984 20.03100586 13.07958984 20.03100586 12.20703125 22.12890625 C9.92211914 23.86816406 9.92211914 23.86816406 6.9296875 25.58203125 C5.85912109 26.20078125 4.78855469 26.81953125 3.68554688 27.45703125 C2.55826172 28.09125 1.43097656 28.72546875 0.26953125 29.37890625 C-0.85388672 30.02859375 -1.97730469 30.67828125 -3.13476562 31.34765625 C-11.48688616 36.12890625 -11.48688616 36.12890625 -13.79296875 36.12890625 C-15.01953125 34.40625 -15.01953125 34.40625 -16.41796875 32.06640625 C-21.66426246 24.00688258 -28.28145034 18.34302004 -37.79296875 16.12890625 C-48.69036114 14.91390963 -57.46206946 16.48442942 -66.16796875 23.25390625 C-70.76845011 27.61176588 -73.49099492 32.89352971 -73.9453125 39.265625 C-73.39699244 46.42190475 -70.10884656 52.17904091 -65.04296875 57.12890625 C-55.88003282 64.74233757 -44.76602072 68.93892473 -33.60546875 72.69140625 C-14.48061851 79.12182738 3.29889799 89.59196493 13.01953125 107.87890625 C21.45686555 125.33852592 21.13289339 144.09009987 15.17578125 162.27734375 C12.32414519 169.77252231 8.27925069 175.94591007 3.20703125 182.12890625 C2.68625 182.76441406 2.16546875 183.39992187 1.62890625 184.0546875 C-8.33090349 194.9953876 -24.47892785 203.2359597 -39.23388672 204.3059082 C-60.08665483 204.80677373 -79.24254428 202.42845257 -95.29296875 187.62890625 C-97.1630071 185.82705581 -98.97835357 183.98798367 -100.79296875 182.12890625 C-101.39753906 181.54496094 -102.00210938 180.96101562 -102.625 180.359375 C-112.59420017 169.9693115 -116.40146043 155.00038638 -117.79296875 141.12890625 C-113.59508537 140.12629018 -109.39586264 139.12955196 -105.1953125 138.13818359 C-103.76719753 137.80026982 -102.3394577 137.46076646 -100.91210938 137.11962891 C-98.85774274 136.62892713 -96.80208491 136.14400005 -94.74609375 135.66015625 C-93.51020508 135.36689453 -92.27431641 135.07363281 -91.00097656 134.77148438 C-87.79296875 134.12890625 -87.79296875 134.12890625 -83.79296875 134.12890625 C-83.64601562 135.0725 -83.4990625 136.01609375 -83.34765625 136.98828125 C-81.47018155 147.73520537 -78.80816665 159.04553647 -69.79296875 166.12890625 C-61.17546191 172.15598017 -54.3540682 172.90578883 -43.79296875 172.12890625 C-34.56588996 170.22778897 -25.71658439 165.07266196 -19.83984375 157.66796875 C-15.35956359 150.59956559 -12.99969492 143.8343415 -14.2578125 135.41796875 C-16.65208251 125.17678461 -23.14379646 116.04837826 -31.79296875 110.12890625 C-37.19237493 107.28183741 -42.73226938 104.76746679 -48.29296875 102.25390625 C-96.51675316 80.2676677 -96.51675316 80.2676677 -106.79296875 56.12890625 C-109.91077398 45.56723909 -108.89587722 31.21176228 -104.79296875 21.12890625 C-104.46425781 20.29488281 -104.13554688 19.46085937 -103.796875 18.6015625 C-100.70693184 11.66255519 -96.11883673 6.47336365 -90.79296875 1.12890625 C-90.25027344 0.56300781 -89.70757812 -0.00289062 -89.1484375 -0.5859375 C-80.81373919 -8.54082678 -68.91182663 -12.85239621 -57.79296875 -14.87109375 C-57.08398438 -15.01289063 -56.375 -15.1546875 -55.64453125 -15.30078125 C-35.82595853 -18.41404363 -15.49524603 -12.47995491 0 0 Z " fill="#8F8E91" transform="translate(147.79296875,45.87109375)"/>
<path d="M0 0 C12.59232488 10.50883426 20.18375156 24.86196352 23 41 C24.38763846 63.01464494 23.05909977 83.37023522 8.09008789 100.81933594 C-5.18599868 115.54435311 -22.71375651 123.08002448 -42.375 124.875 C-62.75491125 125.72682492 -82.81337887 120.64704214 -98.25 106.75 C-111.78666706 94.05897118 -118.91180744 77.46526743 -120 59 C-120.04125 58.33097656 -120.0825 57.66195312 -120.125 56.97265625 C-120.69822032 37.73394925 -115.00166652 19.59404922 -101.93896484 5.36987305 C-75.56945638 -21.98152443 -29.43067591 -22.89052571 0 0 Z M-79.8125 27.125 C-87.91501796 38.5438974 -88.25957479 51.47266289 -87 65 C-85.10476406 75.6312643 -79.75443084 83.43299078 -71.1875 89.875 C-60.6661737 96.67363813 -48.79218954 97.707616 -36.62109375 95.34375 C-25.41030172 92.02203384 -17.58690428 85.21994686 -12 75 C-6.64203417 63.19722118 -7.3255912 46.78215812 -11.6796875 34.80078125 C-16.41840138 24.74853909 -24.01776897 18.94709566 -34.0625 14.625 C-50.41841991 9.16538017 -68.61550439 13.9786336 -79.8125 27.125 Z " fill="#8F8E91" transform="translate(303,125)"/>
<path d="M0 0 C5.92999815 4.80903169 12.89835662 10.73983933 16.22705078 17.69238281 C15.89705078 18.68238281 15.56705078 19.67238281 15.22705078 20.69238281 C14.66759766 20.07492188 14.10814453 19.45746094 13.53173828 18.82128906 C3.493708 8.21841785 -7.7642432 1.05064691 -21.77294922 -3.30761719 C-22.54251953 -3.55253906 -23.31208984 -3.79746094 -24.10498047 -4.04980469 C-38.38246902 -7.70044099 -53.97649197 -5.8465168 -67.77294922 -1.30761719 C-69.32175781 -0.79908203 -69.32175781 -0.79908203 -70.90185547 -0.28027344 C-98.80210405 10.15910053 -115.08611956 33.63169805 -128.77294922 58.69238281 C-129.31435547 59.67899902 -129.85576172 60.66561523 -130.41357422 61.68212891 C-137.06288214 73.82527213 -143.50192182 86.06681473 -149.81414795 98.38726807 C-156.80144431 112.01986618 -164.01873195 125.47570882 -171.77294922 138.69238281 C-172.33723633 139.65611816 -172.90152344 140.61985352 -173.48291016 141.61279297 C-184.17824022 159.77934496 -195.77805358 176.90614054 -209.77294922 192.69238281 C-210.44922363 193.4692041 -210.44922363 193.4692041 -211.13916016 194.26171875 C-217.44522017 201.49869465 -224.09216702 207.88962496 -231.77294922 213.69238281 C-232.56056641 214.29566406 -233.34818359 214.89894531 -234.15966797 215.52050781 C-255.95036747 231.51236001 -281.73454462 238.960588 -308.72509766 235.29101562 C-314.46061864 234.31299881 -320.12024194 233.06570866 -325.77294922 231.69238281 C-325.77294922 230.70238281 -325.77294922 229.71238281 -325.77294922 228.69238281 C-324.50322266 228.655 -323.23349609 228.61761719 -321.92529297 228.57910156 C-291.23621266 227.49162244 -267.62993652 218.36798433 -245.77294922 196.69238281 C-244.66886719 195.66177734 -244.66886719 195.66177734 -243.54248047 194.61035156 C-222.43663822 174.59982248 -208.37862168 146.00645928 -194.77294922 120.69238281 C-194.1923877 119.61230957 -193.61182617 118.53223633 -193.01367188 117.41943359 C-191.16092437 113.96964466 -189.31025241 110.51875135 -187.46044922 107.06738281 C-186.99022339 106.19043762 -186.99022339 106.19043762 -186.51049805 105.29577637 C-183.2880444 99.28489871 -180.07304677 93.27047723 -176.89555359 87.23568726 C-162.83031173 60.52604859 -148.00692608 34.40690229 -126.77294922 12.69238281 C-126.01626953 11.87382813 -125.25958984 11.05527344 -124.47998047 10.21191406 C-93.33818109 -22.74507216 -36.6818612 -27.05426172 0 0 Z M-118.671875 20.21044922 C-147.85962942 49.48474998 -164.47852154 87.88464475 -182.62841797 124.43920898 C-183.2828035 125.754589 -183.2828035 125.754589 -183.95040894 127.09654236 C-184.76459141 128.73342247 -185.57716968 130.37110205 -186.38772583 132.00978088 C-188.7381034 136.73098156 -191.23995837 141.31285607 -193.9369812 145.84637451 C-194.21285065 146.45555725 -194.48872009 147.06473999 -194.77294922 147.69238281 C-194.44294922 148.35238281 -194.11294922 149.01238281 -193.77294922 149.69238281 C-187.19733695 138.24288708 -181.09692467 126.56926174 -175.08544922 114.81738281 C-139.85728195 46.04338236 -139.85728195 46.04338236 -115.03857422 20.13378906 C-112.76769916 17.91571949 -112.76769916 17.91571949 -111.77294922 15.69238281 C-114.99879245 15.69238281 -116.44360254 18.03645292 -118.671875 20.21044922 Z M-195.77294922 149.69238281 C-194.77294922 151.69238281 -194.77294922 151.69238281 -194.77294922 151.69238281 Z M-196.77294922 151.69238281 C-196.77294922 154.69238281 -196.77294922 154.69238281 -196.77294922 154.69238281 Z M-198.77294922 154.69238281 C-197.77294922 156.69238281 -197.77294922 156.69238281 -197.77294922 156.69238281 Z M-199.77294922 156.69238281 C-198.77294922 158.69238281 -198.77294922 158.69238281 -198.77294922 158.69238281 Z M-201.77294922 159.69238281 C-200.77294922 161.69238281 -200.77294922 161.69238281 -200.77294922 161.69238281 Z M-202.77294922 161.69238281 C-201.77294922 163.69238281 -201.77294922 163.69238281 -201.77294922 163.69238281 Z M-204.77294922 164.69238281 C-203.77294922 166.69238281 -203.77294922 166.69238281 -203.77294922 166.69238281 Z M-206.77294922 167.69238281 C-205.77294922 169.69238281 -205.77294922 169.69238281 -205.77294922 169.69238281 Z M-208.77294922 170.69238281 C-207.77294922 172.69238281 -207.77294922 172.69238281 -207.77294922 172.69238281 Z M-210.77294922 173.69238281 C-209.77294922 175.69238281 -209.77294922 175.69238281 -209.77294922 175.69238281 Z M-324.77294922 229.69238281 C-324.77294922 230.02238281 -324.77294922 230.35238281 -324.77294922 230.69238281 C-322.46294922 230.69238281 -320.15294922 230.69238281 -317.77294922 230.69238281 C-317.77294922 230.36238281 -317.77294922 230.03238281 -317.77294922 229.69238281 C-320.08294922 229.69238281 -322.39294922 229.69238281 -324.77294922 229.69238281 Z M-294.77294922 229.69238281 C-290.77294922 230.69238281 -290.77294922 230.69238281 -290.77294922 230.69238281 Z M-312.77294922 230.69238281 C-312.77294922 231.02238281 -312.77294922 231.35238281 -312.77294922 231.69238281 C-309.14294922 231.69238281 -305.51294922 231.69238281 -301.77294922 231.69238281 C-301.77294922 231.36238281 -301.77294922 231.03238281 -301.77294922 230.69238281 C-305.40294922 230.69238281 -309.03294922 230.69238281 -312.77294922 230.69238281 Z " fill="#6CAC32" transform="translate(711.77294921875,103.3076171875)"/>
<path d="M0 0 C2 2 2 2 2.24050903 3.83499146 C2.23606781 4.57667572 2.23162659 5.31835999 2.22705078 6.08251953 C2.22689972 6.92324005 2.22674866 7.76396057 2.22659302 8.63015747 C2.21627045 9.53853363 2.20594788 10.44690979 2.1953125 11.3828125 C2.1924826 12.31221649 2.18965271 13.24162048 2.18673706 14.19918823 C2.17552069 17.1745885 2.1504136 20.14969035 2.125 23.125 C2.11497208 25.13931858 2.1058459 27.15364186 2.09765625 29.16796875 C2.07557661 34.11209456 2.04103693 39.05599665 2 44 C-0.74272439 41.28284362 -3.35162831 38.63523973 -5.6875 35.5625 C-12.43857336 27.63732693 -22.39343726 23.58420478 -32.578125 22.68359375 C-44.62778746 22.3055173 -54.70470583 25.14556428 -64 33 C-72.83724431 41.80224533 -75.36408737 51.91236046 -75.5 64.0625 C-75.37181246 76.52671759 -72.08912394 85.65525861 -63.375 94.68359375 C-54.65323956 102.77948712 -44.66953846 104.49700244 -33.17578125 104.26953125 C-22.49794878 103.77723055 -13.85196211 99.06306796 -6 92 C-3.93197633 89.63915881 -2.0517048 87.25026134 -0.2421875 84.6875 C0.16773438 84.130625 0.57765625 83.57375 1 83 C1.33 83 1.66 83 2 83 C2 96.86 2 110.72 2 125 C-18.01441304 134.2374214 -39.68912809 138.25044201 -61.09960938 130.72314453 C-80.34875341 123.39838032 -95.05973432 111.38276054 -103.97265625 92.4765625 C-111.62124463 74.03852056 -111.09293637 53.03041365 -103.64453125 34.65625 C-94.57833978 15.40578446 -78.76529129 3.10439382 -59.14990234 -4.28369141 C-40.15575474 -10.612198 -17.77776547 -9.46689444 0 0 Z " fill="#8F8E91" transform="translate(446,116)"/>
<path d="M0 0 C6.25373227 5.46209667 12.18937989 11.11915205 17.38964844 17.61083984 C18.52466797 19.02429688 18.52466797 19.02429688 19.68261719 20.46630859 C31.04999358 34.83427883 40.95756838 50.34142996 49.38964844 66.61083984 C49.83421387 67.38435791 50.2787793 68.15787598 50.73681641 68.95483398 C51.68909651 72.82912541 50.10141971 75.31295051 48.30371094 78.66162109 C47.96794037 79.3204277 47.6321698 79.97923431 47.28622437 80.65800476 C46.21232496 82.75551561 45.11406473 84.83910988 44.01464844 86.92333984 C43.28123356 88.34501896 42.54944272 89.76753714 41.81933594 91.19091797 C40.02812372 94.67423367 38.2149596 98.14527941 36.38964844 101.61083984 C35.72964844 101.61083984 35.06964844 101.61083984 34.38964844 101.61083984 C33.88216064 100.58015381 33.37467285 99.54946777 32.85180664 98.48754883 C10.78117054 51.98434645 10.78117054 51.98434645 -20.61035156 11.61083984 C-21.34640625 10.87478516 -22.08246094 10.13873047 -22.84082031 9.38037109 C-42.04540349 -8.70481926 -65.7025502 -12.35827555 -91.11035156 -11.73681641 C-107.25329816 -10.97292867 -118.68172198 -2.59032052 -130.61035156 7.61083984 C-131.35285156 8.24119141 -132.09535156 8.87154297 -132.86035156 9.52099609 C-134.45011069 10.87677857 -136.03143507 12.24244555 -137.61035156 13.61083984 C-136.15291279 8.98132845 -133.49822809 5.83903834 -130.23535156 2.36083984 C-129.70369385 1.79236328 -129.17203613 1.22388672 -128.62426758 0.63818359 C-94.49083861 -34.97755975 -35.46009877 -30.58944239 0 0 Z " fill="#6CAC32" transform="translate(486.6103515625,110.38916015625)"/>
<path d="M0 0 C4.27195995 2.6253801 7.25181344 6.40387783 8.82421875 11.12109375 C9.47797137 18.35524158 9.67199522 25.30376199 4.82421875 31.12109375 C-1.09848626 35.97576999 -6.53446196 37.62216387 -14.17578125 37.12109375 C-20.28365333 35.96123651 -24.24497484 33.9379072 -28.0234375 28.9453125 C-31.05391233 24.14791675 -31.65820143 19.71716782 -31.17578125 14.12109375 C-29.81745958 8.56046443 -27.73569675 4.74829926 -23.17578125 1.12109375 C-15.88911755 -3.02230325 -7.70798476 -3.26768522 0 0 Z " fill="#6CAC32" transform="translate(553.17578125,77.87890625)"/>
</svg>
